<svg xmlns="http://www.w3.org/2000/svg" xmlns:xlink="http://www.w3.org/1999/xlink" width="1721" height="405" version="1.1" viewBox="0 0 1721 405"><title>Slice</title><desc>Created with Sketch.</desc><defs><linearGradient id="IIUSTSRREFFFSG" x1="1.736%" x2="100%" y1="96.745%" y2="2.447%"><stop offset="0%" stop-color="#00AEFF"/><stop offset="34.64%" stop-color="#3369E6"/><stop offset="100%" stop-color="#8136CE"/></linearGradient><linearGradient id="AZERDFGHBVCDGHNJHG" x1="14.764%" x2="94.5%" y1="50%" y2="50%"><stop offset="0%" stop-color="#FFF" stop-opacity="0"/><stop offset="100%" stop-color="#FFF"/></linearGradient></defs><g id="Work-space" fill="none" fill-rule="evenodd" stroke="none" stroke-width="1"><g id="Background" transform="translate(-444.000000, -49.000000)"><path id="BBBBSGSSF" fill="url(#IIUSTSRREFFFSG)" d="M441.009516,37 L2169,37 L2169,458.5 L441.009516,458.5 L441.009516,37 Z" transform="translate(1305.004758, 247.750000) scale(-1, 1) rotate(-360.000000) translate(-1305.004758, -247.750000)"/><path id="Rectangle-13-Copy-12" fill="url(#AZERDFGHBVCDGHNJHG)" d="M1138,313 L2099.03663,313 C2123.86396,313 2143.99048,333.12153 2143.99048,357.954887 L2143.99048,357.954887 C2143.99048,382.782786 2123.86709,402.909774 2099.03663,402.909774 L1138,402.909774 L1138,313 Z" opacity=".2" style="mix-blend-mode:overlay"/><path id="Rectangle-13-Copy-21" fill="url(#AZERDFGHBVCDGHNJHG)" d="M477,118 L1438.03663,118 C1462.86396,118 1482.99048,138.12153 1482.99048,162.954887 L1482.99048,162.954887 C1482.99048,187.782786 1462.86709,207.909774 1438.03663,207.909774 L477,207.909774 L477,118 Z" opacity=".2" style="mix-blend-mode:overlay"/><path id="Rectangle-13-Copy-2" fill="url(#AZERDFGHBVCDGHNJHG)" d="M732,265 L1693.03663,265 C1717.86396,265 1737.99048,285.12153 1737.99048,309.954887 L1737.99048,309.954887 C1737.99048,334.782786 1717.86709,354.909774 1693.03663,354.909774 L732,354.909774 L732,265 Z" opacity=".2" style="mix-blend-mode:overlay"/><path id="Rectangle-13-Copy-22" fill="url(#AZERDFGHBVCDGHNJHG)" d="M0,175 L961.036629,175 C985.863957,175 1005.99048,195.12153 1005.99048,219.954887 L1005.99048,219.954887 C1005.99048,244.782786 985.867092,264.909774 961.036629,264.909774 L0,264.909774 L0,175 Z" opacity=".2" style="mix-blend-mode:overlay"/><path id="Rectangle-13-Copy-25" fill="url(#AZERDFGHBVCDGHNJHG)" d="M184,403 L1145.03663,403 C1169.86396,403 1189.99048,423.12153 1189.99048,447.954887 L1189.99048,447.954887 C1189.99048,472.782786 1169.86709,492.909774 1145.03663,492.909774 L184,492.909774 L184,403 Z" opacity=".2" style="mix-blend-mode:overlay"/><path id="Rectangle-13-Copy-27" fill="url(#AZERDFGHBVCDGHNJHG)" d="M1235,146 L2196.03663,146 C2220.86396,146 2240.99048,166.12153 2240.99048,190.954887 L2240.99048,190.954887 C2240.99048,215.782786 2220.86709,235.909774 2196.03663,235.909774 L1235,235.909774 L1235,146 Z" opacity=".2" style="mix-blend-mode:overlay"/><path id="Rectangle-13-Copy-23" fill="url(#AZERDFGHBVCDGHNJHG)" d="M216,45 L1177.03663,45 C1201.86396,45 1221.99048,65.1215296 1221.99048,89.9548872 L1221.99048,89.9548872 C1221.99048,114.782786 1201.86709,134.909774 1177.03663,134.909774 L216,134.909774 L216,45 Z" opacity=".2" style="mix-blend-mode:overlay"/><path id="Rectangle-13-Copy-26" fill="url(#AZERDFGHBVCDGHNJHG)" d="M569,372 L1530.03663,372 C1554.86396,372 1574.99048,392.12153 1574.99048,416.954887 L1574.99048,416.954887 C1574.99048,441.782786 1554.86709,461.909774 1530.03663,461.909774 L569,461.909774 L569,372 Z" opacity=".2" style="mix-blend-mode:overlay"/><path id="Rectangle-13-Copy-30" fill="url(#AZERDFGHBVCDGHNJHG)" d="M980,388 L1941.03663,388 C1965.86396,388 1985.99048,408.12153 1985.99048,432.954887 L1985.99048,432.954887 C1985.99048,457.782786 1965.86709,477.909774 1941.03663,477.909774 L980,477.909774 L980,388 Z" opacity=".2" style="mix-blend-mode:overlay"/><path id="Rectangle-13-Copy-33" fill="url(#AZERDFGHBVCDGHNJHG)" d="M1291,448 L2252.03663,448 C2276.86396,448 2296.99048,468.12153 2296.99048,492.954887 L2296.99048,492.954887 C2296.99048,517.782786 2276.86709,537.909774 2252.03663,537.909774 L1291,537.909774 L1291,448 Z" opacity=".2" style="mix-blend-mode:overlay"/><path id="Rectangle-13-Copy-31" fill="url(#AZERDFGHBVCDGHNJHG)" d="M788,45 L1749.03663,45 C1773.86396,45 1793.99048,65.1215296 1793.99048,89.9548872 L1793.99048,89.9548872 C1793.99048,114.782786 1773.86709,134.909774 1749.03663,134.909774 L788,134.909774 L788,45 Z" opacity=".2" style="mix-blend-mode:overlay"/><path id="Rectangle-13-Copy-32" fill="url(#AZERDFGHBVCDGHNJHG)" d="M1138,0 L2099.03663,0 C2123.86396,0 2143.99048,20.1215296 2143.99048,44.9548872 L2143.99048,44.9548872 C2143.99048,69.7827859 2123.86709,89.9097744 2099.03663,89.9097744 L1138,89.9097744 L1138,0 Z" opacity=".2" style="mix-blend-mode:overlay"/></g></g></svg>